# xmcd
#
# Track frame offsets:
#	150
#	12135
#	24387
#	34229
#	41882
#	53708
#	69369
#	80980
#	93656
#	110062
#	118307
#	132835
#	152467
#	164971
#	180055
#
# Disc length: 2605 seconds
#
# Revision: 2
# Processed by: cddbd v1.5.2PL0 Copyright (c) Steve Scherf et al.
# Submitted via: EZCDAudioConverter 2.0.7.1
#
DISCID=ca0a2b0f
DTITLE=Various Artist - Super 10 CD Chanson Française 08 Chansons Humoristiqu
DTITLE=es
DYEAR=2013
DGENRE=Chanson Française
TTITLE0=Fernandel - Félicie Aussi
TTITLE1=Bourvil - La tactique du Gendarme
TTITLE2=Annie Cordy - Docteur Miracle
TTITLE3=Pierre Perret - Moi j'attends adèle
TTITLE4=Jean Constantin - Shah, Shah Persan
TTITLE5=Henri Salvador - Faut Rigoler
TTITLE6=Zizi Jeanmaire - Mon truc en Plumes
TTITLE7=Jean Yanne - Henri Salvador - Gillian Hills - Allo Brigitte ( Babylone
TTITLE7=21 29)
TTITLE8=Les frères Jacques - La queue du chat
TTITLE9=Boby Lapointe - L'Hélicon
TTITLE10=Fernand Sardou - Aujurd'hui peut être
TTITLE11=Francis Blanche - Le complexe de la truite
TTITLE12=Georges Ulmer - Quand allons nous nous marier
TTITLE13=Ray Ventura and ses Collégiens - Tout va très bien madame la marquise
TTITLE14=Marcel Amont - Le mexicain
EXTD=
EXTT0=
EXTT1=
EXTT2=
EXTT3=
EXTT4=
EXTT5=
EXTT6=
EXTT7=
EXTT8=
EXTT9=
EXTT10=
EXTT11=
EXTT12=
EXTT13=
EXTT14=
PLAYORDER=
